<svg width="24" height="24" viewBox="0 0 24 24" fill="none" xmlns="http://www.w3.org/2000/svg">
<path d="M18.3937 6.39371L7.35938 17.4375H15.75C15.8992 17.4375 16.0423 17.4967 16.1477 17.6022C16.2532 17.7077 16.3125 17.8508 16.3125 18C16.3125 18.1491 16.2532 18.2922 16.1477 18.3977C16.0423 18.5032 15.8992 18.5625 15.75 18.5625H6C5.85082 18.5625 5.70774 18.5032 5.60225 18.3977C5.49676 18.2922 5.4375 18.1491 5.4375 18V8.24996C5.4375 8.10078 5.49676 7.9577 5.60225 7.85221C5.70774 7.74673 5.85082 7.68746 6 7.68746C6.14918 7.68746 6.29226 7.74673 6.39775 7.85221C6.50324 7.9577 6.5625 8.10078 6.5625 8.24996V16.6406L17.6063 5.60621C17.7107 5.50178 17.8523 5.44312 18 5.44312C18.1477 5.44312 18.2893 5.50178 18.3937 5.60621C18.4982 5.71064 18.5568 5.85228 18.5568 5.99996C18.5568 6.14765 18.4982 6.28928 18.3937 6.39371Z" fill="#DAC5A7"/>
</svg>
