<svg width="24" height="24" viewBox="0 0 24 24" fill="none" xmlns="http://www.w3.org/2000/svg">
<path d="M18.5625 8.24996V18C18.5625 18.1491 18.5032 18.2922 18.3977 18.3977C18.2923 18.5032 18.1492 18.5625 18 18.5625H8.24999C8.10081 18.5625 7.95773 18.5032 7.85225 18.3977C7.74676 18.2922 7.68749 18.1491 7.68749 18C7.68749 17.8508 7.74676 17.7077 7.85225 17.6022C7.95773 17.4967 8.10081 17.4375 8.24999 17.4375H16.6406L5.60624 6.39371C5.50181 6.28928 5.44315 6.14765 5.44315 5.99996C5.44315 5.85228 5.50181 5.71064 5.60624 5.60621C5.71067 5.50178 5.85231 5.44312 5.99999 5.44312C6.14768 5.44312 6.28931 5.50178 6.39374 5.60621L17.4375 16.6406V8.24996C17.4375 8.10078 17.4968 7.9577 17.6022 7.85221C17.7077 7.74673 17.8508 7.68746 18 7.68746C18.1492 7.68746 18.2923 7.74673 18.3977 7.85221C18.5032 7.9577 18.5625 8.10078 18.5625 8.24996Z" fill="#DAC5A7"/>
</svg>
