<svg width="24" height="24" viewBox="0 0 24 24" fill="none" xmlns="http://www.w3.org/2000/svg">
<path d="M18.3937 18.3937C18.343 18.4471 18.2819 18.4895 18.2142 18.5185C18.1465 18.5475 18.0736 18.5625 18 18.5625C17.9264 18.5625 17.8535 18.5475 17.7858 18.5185C17.7181 18.4895 17.657 18.4471 17.6063 18.3937L6.5625 7.35938V15.75C6.5625 15.8992 6.50324 16.0423 6.39775 16.1477C6.29226 16.2532 6.14918 16.3125 6 16.3125C5.85082 16.3125 5.70774 16.2532 5.60225 16.1477C5.49676 16.0423 5.4375 15.8992 5.4375 15.75V6C5.4375 5.85082 5.49676 5.70774 5.60225 5.60225C5.70774 5.49676 5.85082 5.4375 6 5.4375H15.75C15.8992 5.4375 16.0423 5.49676 16.1477 5.60225C16.2532 5.70774 16.3125 5.85082 16.3125 6C16.3125 6.14918 16.2532 6.29226 16.1477 6.39775C16.0423 6.50324 15.8992 6.5625 15.75 6.5625H7.35938L18.3937 17.6063C18.4471 17.657 18.4895 17.7181 18.5185 17.7858C18.5475 17.8535 18.5625 17.9264 18.5625 18C18.5625 18.0736 18.5475 18.1465 18.5185 18.2142C18.4895 18.2819 18.4471 18.343 18.3937 18.3937Z" fill="#DAC5A7"/>
</svg>
