<svg width="24" height="24" viewBox="0 0 24 24" fill="none" xmlns="http://www.w3.org/2000/svg">
<path d="M19.1437 10.8937C19.093 10.9471 19.0319 10.9895 18.9642 11.0185C18.8965 11.0475 18.8236 11.0625 18.75 11.0625C18.6764 11.0625 18.6035 11.0475 18.5358 11.0185C18.4681 10.9895 18.407 10.9471 18.3562 10.8937L12.5625 5.10938V20.25C12.5625 20.3992 12.5032 20.5423 12.3977 20.6477C12.2923 20.7532 12.1492 20.8125 12 20.8125C11.8508 20.8125 11.7077 20.7532 11.6022 20.6477C11.4968 20.5423 11.4375 20.3992 11.4375 20.25V5.10938L5.64374 10.8937C5.53931 10.9982 5.39768 11.0568 5.24999 11.0568C5.10231 11.0568 4.96067 10.9982 4.85624 10.8937C4.75181 10.7893 4.69315 10.6477 4.69315 10.5C4.69315 10.3523 4.75181 10.2107 4.85624 10.1063L11.6062 3.35625C11.657 3.30293 11.7181 3.26047 11.7858 3.23146C11.8535 3.20246 11.9264 3.1875 12 3.1875C12.0736 3.1875 12.1465 3.20246 12.2142 3.23146C12.2819 3.26047 12.343 3.30293 12.3937 3.35625L19.1437 10.1063C19.1971 10.157 19.2395 10.2181 19.2685 10.2858C19.2975 10.3535 19.3125 10.4264 19.3125 10.5C19.3125 10.5736 19.2975 10.6465 19.2685 10.7142C19.2395 10.7819 19.1971 10.843 19.1437 10.8937Z" fill="#DAC5A7"/>
</svg>
