<svg width="24" height="24" viewBox="0 0 24 24" fill="none" xmlns="http://www.w3.org/2000/svg">
<path d="M20.8125 12C20.8125 12.1491 20.7532 12.2922 20.6477 12.3977C20.5423 12.5032 20.3992 12.5625 20.25 12.5625H5.10938L10.8937 18.3562C10.9455 18.4079 10.9865 18.4693 11.0145 18.5369C11.0424 18.6044 11.0568 18.6768 11.0568 18.75C11.0568 18.8231 11.0424 18.8955 11.0145 18.9631C10.9865 19.0306 10.9455 19.092 10.8937 19.1437C10.842 19.1954 10.7807 19.2364 10.7131 19.2644C10.6455 19.2924 10.5731 19.3068 10.5 19.3068C10.4269 19.3068 10.3545 19.2924 10.2869 19.2644C10.2193 19.2364 10.158 19.1954 10.1063 19.1437L3.35625 12.3937C3.30293 12.3429 3.26047 12.2818 3.23146 12.2142C3.20246 12.1465 3.1875 12.0736 3.1875 12C3.1875 11.9263 3.20246 11.8535 3.23146 11.7858C3.26047 11.7181 3.30293 11.657 3.35625 11.6062L10.1063 4.85621C10.2107 4.75178 10.3523 4.69312 10.5 4.69312C10.6477 4.69312 10.7893 4.75178 10.8937 4.85621C10.9982 4.96064 11.0568 5.10228 11.0568 5.24996C11.0568 5.39765 10.9982 5.53928 10.8937 5.64371L5.10938 11.4375H20.25C20.3992 11.4375 20.5423 11.4967 20.6477 11.6022C20.7532 11.7077 20.8125 11.8508 20.8125 12Z" fill="#DAC5A7"/>
</svg>
