<svg width="24" height="24" viewBox="0 0 24 24" fill="none" xmlns="http://www.w3.org/2000/svg">
<path d="M19.1437 13.8937L12.3937 20.6437C12.343 20.6971 12.2819 20.7395 12.2142 20.7685C12.1465 20.7975 12.0736 20.8125 12 20.8125C11.9264 20.8125 11.8535 20.7975 11.7858 20.7685C11.7181 20.7395 11.657 20.6971 11.6062 20.6437L4.85624 13.8937C4.75181 13.7893 4.69315 13.6477 4.69315 13.5C4.69315 13.3523 4.75181 13.2107 4.85624 13.1063C4.96067 13.0018 5.10231 12.9432 5.24999 12.9432C5.39768 12.9432 5.53931 13.0018 5.64374 13.1063L11.4375 18.8906V3.75C11.4375 3.60082 11.4968 3.45774 11.6022 3.35225C11.7077 3.24676 11.8508 3.1875 12 3.1875C12.1492 3.1875 12.2923 3.24676 12.3977 3.35225C12.5032 3.45774 12.5625 3.60082 12.5625 3.75V18.8906L18.3562 13.1063C18.4607 13.0018 18.6023 12.9432 18.75 12.9432C18.8977 12.9432 19.0393 13.0018 19.1437 13.1063C19.2482 13.2107 19.3068 13.3523 19.3068 13.5C19.3068 13.6477 19.2482 13.7893 19.1437 13.8937Z" fill="#DAC5A7"/>
</svg>
