<svg width="24" height="24" viewBox="0 0 24 24" fill="none" xmlns="http://www.w3.org/2000/svg">
<path d="M12.7622 17.6035C12.8145 17.6557 12.856 17.7177 12.8843 17.786C12.9126 17.8543 12.9272 17.9275 12.9272 18.0014C12.9272 18.0754 12.9126 18.1486 12.8843 18.2168C12.856 18.2851 12.8145 18.3472 12.7622 18.3994L11.8294 19.3313C10.8798 20.2808 9.59193 20.8143 8.24906 20.8143C6.90618 20.8143 5.6183 20.2808 4.66874 19.3313C3.71919 18.3817 3.18573 17.0938 3.18573 15.751C3.18573 14.4081 3.71919 13.1202 4.66874 12.1707L6.92906 9.9094C7.84204 8.99538 9.06992 8.46498 10.3612 8.42681C11.6526 8.38864 12.9096 8.84559 13.875 9.70409C13.9304 9.75334 13.9756 9.81301 14.0079 9.87971C14.0402 9.94641 14.0591 10.0188 14.0635 10.0928C14.0678 10.1668 14.0576 10.2409 14.0333 10.311C14.009 10.381 13.9711 10.4456 13.9219 10.501C13.8726 10.5564 13.8129 10.6015 13.7463 10.6339C13.6796 10.6662 13.6071 10.6851 13.5331 10.6894C13.4591 10.6938 13.385 10.6835 13.315 10.6592C13.245 10.6349 13.1804 10.5971 13.125 10.5478C12.3742 9.8809 11.397 9.52604 10.3932 9.55584C9.38937 9.58564 8.4349 9.99785 7.72499 10.7082L5.46374 12.9657C4.72503 13.7044 4.31003 14.7063 4.31003 15.751C4.31003 16.7957 4.72503 17.7976 5.46374 18.5363C6.20245 19.275 7.20436 19.69 8.24906 19.69C9.29375 19.69 10.2957 19.275 11.0344 18.5363L11.9662 17.6035C12.0185 17.5512 12.0805 17.5097 12.1488 17.4814C12.2171 17.4531 12.2903 17.4385 12.3642 17.4385C12.4381 17.4385 12.5113 17.4531 12.5796 17.4814C12.6479 17.5097 12.7099 17.5512 12.7622 17.6035ZM19.3312 4.66597C18.3811 3.71758 17.0934 3.18494 15.7509 3.18494C14.4084 3.18494 13.1208 3.71758 12.1706 4.66597L11.2378 5.59784C11.1323 5.70339 11.073 5.84654 11.073 5.99581C11.073 6.14508 11.1323 6.28823 11.2378 6.39378C11.3434 6.49933 11.4865 6.55862 11.6358 6.55862C11.785 6.55862 11.9282 6.49933 12.0337 6.39378L12.9656 5.45628C13.7043 4.71757 14.7062 4.30256 15.7509 4.30256C16.7956 4.30256 17.7975 4.71757 18.5362 5.45628C19.275 6.19499 19.69 7.1969 19.69 8.24159C19.69 9.28629 19.275 10.2882 18.5362 11.0269L16.275 13.2947C15.5651 14.005 14.6106 14.4172 13.6068 14.447C12.603 14.4768 11.6258 14.122 10.875 13.455C10.7631 13.3556 10.6163 13.3046 10.4668 13.3134C10.3174 13.3222 10.1776 13.39 10.0781 13.5019C9.97866 13.6138 9.92773 13.7606 9.93652 13.91C9.94531 14.0595 10.0131 14.1993 10.125 14.2988C11.0903 15.1567 12.3469 15.6133 13.6378 15.5752C14.9287 15.537 16.1562 15.0069 17.0691 14.0935L19.3294 11.8322C19.8002 11.3622 20.1737 10.8039 20.4287 10.1894C20.6836 9.57491 20.8149 8.91618 20.8151 8.25089C20.8152 7.5856 20.6843 6.92679 20.4297 6.31215C20.1751 5.6975 19.8018 5.13907 19.3312 4.66878V4.66597Z" fill="#DAC5A7"/>
</svg>
