<svg width="24" height="24" viewBox="0 0 24 24" fill="none" xmlns="http://www.w3.org/2000/svg">
<path d="M16.5 20.8125C9.15938 20.8125 3.1875 14.8406 3.1875 7.49997C3.18883 6.2678 3.63866 5.07825 4.45297 4.15352C5.26729 3.22879 6.39039 2.63212 7.6125 2.47497C7.89371 2.44205 8.17803 2.50095 8.42302 2.64287C8.66801 2.7848 8.86054 3.00214 8.97188 3.26247L10.8563 7.65934C10.9417 7.85828 10.977 8.07518 10.959 8.29096C10.9411 8.50674 10.8704 8.71479 10.7531 8.89684L9.1875 11.2781C9.17203 11.3049 9.16311 11.3351 9.16148 11.366C9.15985 11.397 9.16556 11.4279 9.17813 11.4562C9.89825 12.9327 11.0934 14.1246 12.5719 14.8406C12.6006 14.8535 12.6322 14.8585 12.6635 14.8552C12.6948 14.8519 12.7246 14.8404 12.75 14.8218L15.1031 13.2562C15.2834 13.1351 15.4912 13.0613 15.7075 13.0417C15.9238 13.022 16.1415 13.0571 16.3406 13.1437L20.7375 15.0281C20.9978 15.1394 21.2152 15.332 21.3571 15.5769C21.499 15.8219 21.5579 16.1063 21.525 16.3875C21.3678 17.6096 20.7712 18.7327 19.8464 19.547C18.9217 20.3613 17.7322 20.8111 16.5 20.8125ZM7.77188 3.59059H7.75313C6.8036 3.71541 5.93158 4.18041 5.29886 4.89933C4.66614 5.61825 4.31568 6.54228 4.3125 7.49997C4.31498 10.7315 5.59982 13.83 7.88488 16.1151C10.1699 18.4002 13.2684 19.685 16.5 19.6875C17.4577 19.6843 18.3817 19.3338 19.1006 18.7011C19.8196 18.0684 20.2846 17.1964 20.4094 16.2468C20.4126 16.2077 20.4035 16.1686 20.3833 16.135C20.3631 16.1014 20.3329 16.0749 20.2969 16.0593L15.9 14.175C15.8709 14.1638 15.8396 14.1597 15.8087 14.1629C15.7777 14.1662 15.748 14.1767 15.7219 14.1937L13.3781 15.7593C13.1884 15.884 12.9699 15.958 12.7434 15.9745C12.517 15.9909 12.2901 15.9491 12.0844 15.8531C10.3791 15.0229 8.99989 13.647 8.16563 11.9437C8.0682 11.7404 8.02478 11.5154 8.03956 11.2905C8.05434 11.0655 8.12681 10.8482 8.25 10.6593L9.80625 8.27809C9.82483 8.2527 9.83635 8.22285 9.83964 8.19156C9.84294 8.16027 9.83788 8.12867 9.825 8.09997L7.94063 3.70309C7.92625 3.67013 7.90269 3.642 7.87277 3.62206C7.84285 3.60211 7.80783 3.59119 7.77188 3.59059Z" fill="#DAC5A7"/>
</svg>
