<svg width="24" height="24" viewBox="0 0 24 24" fill="none" xmlns="http://www.w3.org/2000/svg">
<path d="M19.5 3.1875H4.5C4.1519 3.1875 3.81806 3.32578 3.57192 3.57192C3.32578 3.81806 3.1875 4.1519 3.1875 4.5V18C3.1875 18.3481 3.32578 18.6819 3.57192 18.9281C3.81806 19.1742 4.1519 19.3125 4.5 19.3125H6.1875V22.5C6.1875 22.6069 6.21797 22.7116 6.27533 22.8018C6.33269 22.892 6.41456 22.964 6.51136 23.0093C6.60816 23.0547 6.71588 23.0715 6.82191 23.0579C6.92793 23.0442 7.02786 23.0006 7.11 22.9322L11.4019 19.3556C11.4356 19.3277 11.4781 19.3124 11.5219 19.3125H15.4781C15.7864 19.3132 16.0851 19.2053 16.3219 19.0078L20.3438 15.6562C20.491 15.5327 20.6093 15.3783 20.6903 15.204C20.7713 15.0297 20.813 14.8397 20.8125 14.6475V4.5C20.8125 4.1519 20.6742 3.81806 20.4281 3.57192C20.1819 3.32578 19.8481 3.1875 19.5 3.1875ZM19.6875 14.6484C19.6875 14.676 19.6815 14.7032 19.6699 14.7282C19.6582 14.7531 19.6412 14.7752 19.62 14.7928L15.5981 18.1444C15.5644 18.1723 15.5219 18.1876 15.4781 18.1875H11.5219C11.2136 18.1868 10.9149 18.2947 10.6781 18.4922L7.3125 21.2991V18.75C7.3125 18.6008 7.25324 18.4577 7.14775 18.3523C7.04226 18.2468 6.89918 18.1875 6.75 18.1875H4.5C4.45027 18.1875 4.40258 18.1677 4.36742 18.1326C4.33225 18.0974 4.3125 18.0497 4.3125 18V4.5C4.3125 4.45027 4.33225 4.40258 4.36742 4.36742C4.40258 4.33225 4.45027 4.3125 4.5 4.3125H19.5C19.5497 4.3125 19.5974 4.33225 19.6326 4.36742C19.6677 4.40258 19.6875 4.45027 19.6875 4.5V14.6484ZM16.3125 8.25V12.75C16.3125 12.8992 16.2532 13.0423 16.1477 13.1477C16.0423 13.2532 15.8992 13.3125 15.75 13.3125C15.6008 13.3125 15.4577 13.2532 15.3523 13.1477C15.2468 13.0423 15.1875 12.8992 15.1875 12.75V8.25C15.1875 8.10082 15.2468 7.95774 15.3523 7.85225C15.4577 7.74676 15.6008 7.6875 15.75 7.6875C15.8992 7.6875 16.0423 7.74676 16.1477 7.85225C16.2532 7.95774 16.3125 8.10082 16.3125 8.25ZM11.8125 8.25V12.75C11.8125 12.8992 11.7532 13.0423 11.6477 13.1477C11.5423 13.2532 11.3992 13.3125 11.25 13.3125C11.1008 13.3125 10.9577 13.2532 10.8523 13.1477C10.7468 13.0423 10.6875 12.8992 10.6875 12.75V8.25C10.6875 8.10082 10.7468 7.95774 10.8523 7.85225C10.9577 7.74676 11.1008 7.6875 11.25 7.6875C11.3992 7.6875 11.5423 7.74676 11.6477 7.85225C11.7532 7.95774 11.8125 8.10082 11.8125 8.25Z" fill="#DAC5A7"/>
</svg>
